<mxfile host="app.diagrams.net" modified="2024-03-07T15:56:00.826Z" agent="Mozilla/5.0 (Windows NT 10.0; Win64; x64) AppleWebKit/537.36 (KHTML, like Gecko) Chrome/121.0.0.0 Safari/537.36 OPR/107.0.0.0" etag="-xOkS7hMh8BaDkM7EbtK" version="24.0.2" type="github">
  <diagram name="Page-1" id="hcq9E7iPZeioAdXtskcw">
    <mxGraphModel dx="2433" dy="1257" grid="0" gridSize="10" guides="1" tooltips="1" connect="1" arrows="1" fold="1" page="0" pageScale="1" pageWidth="827" pageHeight="1169" math="0" shadow="0">
      <root>
        <mxCell id="0" />
        <mxCell id="1" parent="0" />
        <mxCell id="0fgqfkrNGrGJVoKdJuPH-3" value="" style="edgeStyle=none;curved=1;rounded=0;orthogonalLoop=1;jettySize=auto;html=1;fontSize=12;startSize=8;endSize=8;" edge="1" parent="1" source="0fgqfkrNGrGJVoKdJuPH-1" target="0fgqfkrNGrGJVoKdJuPH-2">
          <mxGeometry relative="1" as="geometry" />
        </mxCell>
        <mxCell id="0fgqfkrNGrGJVoKdJuPH-1" value="document" style="ellipse;whiteSpace=wrap;html=1;" vertex="1" parent="1">
          <mxGeometry x="126" y="-182" width="120" height="80" as="geometry" />
        </mxCell>
        <mxCell id="0fgqfkrNGrGJVoKdJuPH-5" value="" style="edgeStyle=none;curved=1;rounded=0;orthogonalLoop=1;jettySize=auto;html=1;fontSize=12;startSize=8;endSize=8;" edge="1" parent="1" source="0fgqfkrNGrGJVoKdJuPH-2" target="0fgqfkrNGrGJVoKdJuPH-4">
          <mxGeometry relative="1" as="geometry" />
        </mxCell>
        <mxCell id="0fgqfkrNGrGJVoKdJuPH-2" value="HTML" style="ellipse;whiteSpace=wrap;html=1;" vertex="1" parent="1">
          <mxGeometry x="146" y="18" width="80" height="80" as="geometry" />
        </mxCell>
        <mxCell id="0fgqfkrNGrGJVoKdJuPH-7" value="" style="edgeStyle=none;curved=1;rounded=0;orthogonalLoop=1;jettySize=auto;html=1;fontSize=12;startSize=8;endSize=8;" edge="1" parent="1" source="0fgqfkrNGrGJVoKdJuPH-4" target="0fgqfkrNGrGJVoKdJuPH-6">
          <mxGeometry relative="1" as="geometry" />
        </mxCell>
        <mxCell id="0fgqfkrNGrGJVoKdJuPH-11" value="" style="edgeStyle=none;curved=1;rounded=0;orthogonalLoop=1;jettySize=auto;html=1;fontSize=12;startSize=8;endSize=8;" edge="1" parent="1">
          <mxGeometry relative="1" as="geometry">
            <mxPoint x="170.996956521739" y="288" as="sourcePoint" />
            <mxPoint x="192.91" y="411.2876712328766" as="targetPoint" />
            <Array as="points">
              <mxPoint x="278.90999999999997" y="373" />
            </Array>
          </mxGeometry>
        </mxCell>
        <mxCell id="0fgqfkrNGrGJVoKdJuPH-4" value="BODY" style="whiteSpace=wrap;html=1;" vertex="1" parent="1">
          <mxGeometry x="126" y="228" width="120" height="60" as="geometry" />
        </mxCell>
        <mxCell id="0fgqfkrNGrGJVoKdJuPH-17" value="" style="edgeStyle=none;curved=1;rounded=0;orthogonalLoop=1;jettySize=auto;html=1;fontSize=12;startSize=8;endSize=8;" edge="1" parent="1" source="0fgqfkrNGrGJVoKdJuPH-6" target="0fgqfkrNGrGJVoKdJuPH-16">
          <mxGeometry relative="1" as="geometry">
            <Array as="points">
              <mxPoint x="-338" y="109" />
            </Array>
          </mxGeometry>
        </mxCell>
        <mxCell id="0fgqfkrNGrGJVoKdJuPH-20" value="" style="edgeStyle=none;curved=1;rounded=0;orthogonalLoop=1;jettySize=auto;html=1;fontSize=12;startSize=8;endSize=8;" edge="1" parent="1" source="0fgqfkrNGrGJVoKdJuPH-6" target="0fgqfkrNGrGJVoKdJuPH-19">
          <mxGeometry relative="1" as="geometry">
            <Array as="points">
              <mxPoint x="-272" y="247" />
            </Array>
          </mxGeometry>
        </mxCell>
        <mxCell id="0fgqfkrNGrGJVoKdJuPH-6" value="HEAD" style="whiteSpace=wrap;html=1;" vertex="1" parent="1">
          <mxGeometry x="-114" y="228" width="120" height="60" as="geometry" />
        </mxCell>
        <mxCell id="0fgqfkrNGrGJVoKdJuPH-13" value="" style="edgeStyle=none;curved=1;rounded=0;orthogonalLoop=1;jettySize=auto;html=1;fontSize=12;startSize=8;endSize=8;" edge="1" parent="1" source="0fgqfkrNGrGJVoKdJuPH-10" target="0fgqfkrNGrGJVoKdJuPH-12">
          <mxGeometry relative="1" as="geometry" />
        </mxCell>
        <mxCell id="0fgqfkrNGrGJVoKdJuPH-15" value="" style="edgeStyle=none;curved=1;rounded=0;orthogonalLoop=1;jettySize=auto;html=1;fontSize=12;startSize=8;endSize=8;" edge="1" parent="1" source="0fgqfkrNGrGJVoKdJuPH-10" target="0fgqfkrNGrGJVoKdJuPH-14">
          <mxGeometry relative="1" as="geometry" />
        </mxCell>
        <mxCell id="0fgqfkrNGrGJVoKdJuPH-26" value="" style="edgeStyle=none;curved=1;rounded=0;orthogonalLoop=1;jettySize=auto;html=1;fontSize=12;startSize=8;endSize=8;" edge="1" parent="1" source="0fgqfkrNGrGJVoKdJuPH-10" target="0fgqfkrNGrGJVoKdJuPH-25">
          <mxGeometry relative="1" as="geometry" />
        </mxCell>
        <mxCell id="0fgqfkrNGrGJVoKdJuPH-27" value="" style="edgeStyle=none;curved=1;rounded=0;orthogonalLoop=1;jettySize=auto;html=1;fontSize=12;startSize=8;endSize=8;" edge="1" parent="1" source="0fgqfkrNGrGJVoKdJuPH-10" target="0fgqfkrNGrGJVoKdJuPH-25">
          <mxGeometry relative="1" as="geometry" />
        </mxCell>
        <mxCell id="0fgqfkrNGrGJVoKdJuPH-28" value="" style="edgeStyle=none;curved=1;rounded=0;orthogonalLoop=1;jettySize=auto;html=1;fontSize=12;startSize=8;endSize=8;" edge="1" parent="1" source="0fgqfkrNGrGJVoKdJuPH-10" target="0fgqfkrNGrGJVoKdJuPH-25">
          <mxGeometry relative="1" as="geometry" />
        </mxCell>
        <mxCell id="0fgqfkrNGrGJVoKdJuPH-30" value="" style="edgeStyle=none;curved=1;rounded=0;orthogonalLoop=1;jettySize=auto;html=1;fontSize=12;startSize=8;endSize=8;" edge="1" parent="1" source="0fgqfkrNGrGJVoKdJuPH-10" target="0fgqfkrNGrGJVoKdJuPH-29">
          <mxGeometry relative="1" as="geometry" />
        </mxCell>
        <mxCell id="0fgqfkrNGrGJVoKdJuPH-10" value="MAIN" style="whiteSpace=wrap;html=1;" vertex="1" parent="1">
          <mxGeometry x="126" y="408" width="120" height="60" as="geometry" />
        </mxCell>
        <mxCell id="0fgqfkrNGrGJVoKdJuPH-22" value="" style="edgeStyle=none;curved=1;rounded=0;orthogonalLoop=1;jettySize=auto;html=1;fontSize=12;startSize=8;endSize=8;" edge="1" parent="1" source="0fgqfkrNGrGJVoKdJuPH-12">
          <mxGeometry relative="1" as="geometry">
            <mxPoint x="-54" y="498" as="targetPoint" />
          </mxGeometry>
        </mxCell>
        <mxCell id="0fgqfkrNGrGJVoKdJuPH-12" value="HEADER" style="whiteSpace=wrap;html=1;" vertex="1" parent="1">
          <mxGeometry x="-114" y="397" width="120" height="60" as="geometry" />
        </mxCell>
        <mxCell id="0fgqfkrNGrGJVoKdJuPH-32" value="" style="edgeStyle=none;curved=1;rounded=0;orthogonalLoop=1;jettySize=auto;html=1;fontSize=12;startSize=8;endSize=8;" edge="1" parent="1" source="0fgqfkrNGrGJVoKdJuPH-14" target="0fgqfkrNGrGJVoKdJuPH-31">
          <mxGeometry relative="1" as="geometry" />
        </mxCell>
        <mxCell id="0fgqfkrNGrGJVoKdJuPH-14" value="FOOTER" style="whiteSpace=wrap;html=1;" vertex="1" parent="1">
          <mxGeometry x="366" y="408" width="120" height="60" as="geometry" />
        </mxCell>
        <mxCell id="0fgqfkrNGrGJVoKdJuPH-16" value="META" style="whiteSpace=wrap;html=1;" vertex="1" parent="1">
          <mxGeometry x="-462" y="307" width="120" height="60" as="geometry" />
        </mxCell>
        <mxCell id="0fgqfkrNGrGJVoKdJuPH-19" value="LIKE" style="whiteSpace=wrap;html=1;" vertex="1" parent="1">
          <mxGeometry x="-301" y="326" width="120" height="60" as="geometry" />
        </mxCell>
        <mxCell id="0fgqfkrNGrGJVoKdJuPH-21" value="H1" style="ellipse;whiteSpace=wrap;html=1;" vertex="1" parent="1">
          <mxGeometry x="-94" y="499" width="80" height="80" as="geometry" />
        </mxCell>
        <mxCell id="0fgqfkrNGrGJVoKdJuPH-54" style="edgeStyle=none;curved=1;rounded=0;orthogonalLoop=1;jettySize=auto;html=1;exitX=1;exitY=1;exitDx=0;exitDy=0;fontSize=12;startSize=8;endSize=8;" edge="1" parent="1" source="0fgqfkrNGrGJVoKdJuPH-25" target="0fgqfkrNGrGJVoKdJuPH-55">
          <mxGeometry relative="1" as="geometry">
            <mxPoint x="399" y="633" as="targetPoint" />
          </mxGeometry>
        </mxCell>
        <mxCell id="0fgqfkrNGrGJVoKdJuPH-56" style="edgeStyle=none;curved=1;rounded=0;orthogonalLoop=1;jettySize=auto;html=1;exitX=0.5;exitY=1;exitDx=0;exitDy=0;fontSize=12;startSize=8;endSize=8;" edge="1" parent="1" source="0fgqfkrNGrGJVoKdJuPH-25" target="0fgqfkrNGrGJVoKdJuPH-57">
          <mxGeometry relative="1" as="geometry">
            <mxPoint x="293" y="647" as="targetPoint" />
          </mxGeometry>
        </mxCell>
        <mxCell id="0fgqfkrNGrGJVoKdJuPH-25" value="SECTION" style="ellipse;whiteSpace=wrap;html=1;" vertex="1" parent="1">
          <mxGeometry x="253" y="521" width="80" height="80" as="geometry" />
        </mxCell>
        <mxCell id="0fgqfkrNGrGJVoKdJuPH-33" style="edgeStyle=none;curved=1;rounded=0;orthogonalLoop=1;jettySize=auto;html=1;exitX=0;exitY=1;exitDx=0;exitDy=0;fontSize=12;startSize=8;endSize=8;" edge="1" parent="1" source="0fgqfkrNGrGJVoKdJuPH-29">
          <mxGeometry relative="1" as="geometry">
            <mxPoint x="-102" y="637" as="targetPoint" />
            <Array as="points">
              <mxPoint x="11" y="589" />
              <mxPoint x="-37" y="592" />
            </Array>
          </mxGeometry>
        </mxCell>
        <mxCell id="0fgqfkrNGrGJVoKdJuPH-35" style="edgeStyle=none;curved=1;rounded=0;orthogonalLoop=1;jettySize=auto;html=1;exitX=0.5;exitY=1;exitDx=0;exitDy=0;fontSize=12;startSize=8;endSize=8;" edge="1" parent="1" source="0fgqfkrNGrGJVoKdJuPH-29" target="0fgqfkrNGrGJVoKdJuPH-36">
          <mxGeometry relative="1" as="geometry">
            <mxPoint x="120" y="643" as="targetPoint" />
            <Array as="points">
              <mxPoint x="145" y="616" />
            </Array>
          </mxGeometry>
        </mxCell>
        <mxCell id="0fgqfkrNGrGJVoKdJuPH-37" style="edgeStyle=none;curved=1;rounded=0;orthogonalLoop=1;jettySize=auto;html=1;exitX=1;exitY=1;exitDx=0;exitDy=0;fontSize=12;startSize=8;endSize=8;" edge="1" parent="1" source="0fgqfkrNGrGJVoKdJuPH-29" target="0fgqfkrNGrGJVoKdJuPH-38">
          <mxGeometry relative="1" as="geometry">
            <mxPoint x="203" y="656" as="targetPoint" />
          </mxGeometry>
        </mxCell>
        <mxCell id="0fgqfkrNGrGJVoKdJuPH-29" value="SECTION" style="ellipse;whiteSpace=wrap;html=1;" vertex="1" parent="1">
          <mxGeometry x="33" y="499" width="80" height="80" as="geometry" />
        </mxCell>
        <mxCell id="0fgqfkrNGrGJVoKdJuPH-31" value="SMALL" style="ellipse;whiteSpace=wrap;html=1;" vertex="1" parent="1">
          <mxGeometry x="426" y="521" width="80" height="80" as="geometry" />
        </mxCell>
        <mxCell id="0fgqfkrNGrGJVoKdJuPH-34" value="H1" style="rounded=0;whiteSpace=wrap;html=1;" vertex="1" parent="1">
          <mxGeometry x="-170" y="640.5" width="120" height="60" as="geometry" />
        </mxCell>
        <mxCell id="0fgqfkrNGrGJVoKdJuPH-36" value="H2" style="rounded=0;whiteSpace=wrap;html=1;" vertex="1" parent="1">
          <mxGeometry x="-18" y="647" width="120" height="47" as="geometry" />
        </mxCell>
        <mxCell id="0fgqfkrNGrGJVoKdJuPH-40" value="" style="edgeStyle=none;curved=1;rounded=0;orthogonalLoop=1;jettySize=auto;html=1;fontSize=12;startSize=8;endSize=8;" edge="1" parent="1" source="0fgqfkrNGrGJVoKdJuPH-38" target="0fgqfkrNGrGJVoKdJuPH-39">
          <mxGeometry relative="1" as="geometry" />
        </mxCell>
        <mxCell id="0fgqfkrNGrGJVoKdJuPH-42" value="" style="edgeStyle=none;curved=1;rounded=0;orthogonalLoop=1;jettySize=auto;html=1;fontSize=12;startSize=8;endSize=8;" edge="1" parent="1" source="0fgqfkrNGrGJVoKdJuPH-38" target="0fgqfkrNGrGJVoKdJuPH-41">
          <mxGeometry relative="1" as="geometry" />
        </mxCell>
        <mxCell id="0fgqfkrNGrGJVoKdJuPH-43" value="" style="edgeStyle=none;curved=1;rounded=0;orthogonalLoop=1;jettySize=auto;html=1;fontSize=12;startSize=8;endSize=8;" edge="1" parent="1" source="0fgqfkrNGrGJVoKdJuPH-38" target="0fgqfkrNGrGJVoKdJuPH-41">
          <mxGeometry relative="1" as="geometry" />
        </mxCell>
        <mxCell id="0fgqfkrNGrGJVoKdJuPH-44" value="" style="edgeStyle=none;curved=1;rounded=0;orthogonalLoop=1;jettySize=auto;html=1;fontSize=12;startSize=8;endSize=8;" edge="1" parent="1" source="0fgqfkrNGrGJVoKdJuPH-38" target="0fgqfkrNGrGJVoKdJuPH-41">
          <mxGeometry relative="1" as="geometry" />
        </mxCell>
        <mxCell id="0fgqfkrNGrGJVoKdJuPH-45" value="" style="edgeStyle=none;curved=1;rounded=0;orthogonalLoop=1;jettySize=auto;html=1;fontSize=12;startSize=8;endSize=8;" edge="1" parent="1" source="0fgqfkrNGrGJVoKdJuPH-38" target="0fgqfkrNGrGJVoKdJuPH-41">
          <mxGeometry relative="1" as="geometry" />
        </mxCell>
        <mxCell id="0fgqfkrNGrGJVoKdJuPH-46" value="" style="edgeStyle=none;curved=1;rounded=0;orthogonalLoop=1;jettySize=auto;html=1;fontSize=12;startSize=8;endSize=8;" edge="1" parent="1" source="0fgqfkrNGrGJVoKdJuPH-38" target="0fgqfkrNGrGJVoKdJuPH-41">
          <mxGeometry relative="1" as="geometry" />
        </mxCell>
        <mxCell id="0fgqfkrNGrGJVoKdJuPH-47" value="" style="edgeStyle=none;curved=1;rounded=0;orthogonalLoop=1;jettySize=auto;html=1;fontSize=12;startSize=8;endSize=8;" edge="1" parent="1" source="0fgqfkrNGrGJVoKdJuPH-38" target="0fgqfkrNGrGJVoKdJuPH-41">
          <mxGeometry relative="1" as="geometry" />
        </mxCell>
        <mxCell id="0fgqfkrNGrGJVoKdJuPH-48" value="" style="edgeStyle=none;curved=1;rounded=0;orthogonalLoop=1;jettySize=auto;html=1;fontSize=12;startSize=8;endSize=8;" edge="1" parent="1" source="0fgqfkrNGrGJVoKdJuPH-38" target="0fgqfkrNGrGJVoKdJuPH-41">
          <mxGeometry relative="1" as="geometry" />
        </mxCell>
        <mxCell id="0fgqfkrNGrGJVoKdJuPH-49" value="" style="edgeStyle=none;curved=1;rounded=0;orthogonalLoop=1;jettySize=auto;html=1;fontSize=12;startSize=8;endSize=8;" edge="1" parent="1" source="0fgqfkrNGrGJVoKdJuPH-38" target="0fgqfkrNGrGJVoKdJuPH-41">
          <mxGeometry relative="1" as="geometry" />
        </mxCell>
        <mxCell id="0fgqfkrNGrGJVoKdJuPH-51" value="" style="edgeStyle=none;curved=1;rounded=0;orthogonalLoop=1;jettySize=auto;html=1;fontSize=12;startSize=8;endSize=8;" edge="1" parent="1" source="0fgqfkrNGrGJVoKdJuPH-38" target="0fgqfkrNGrGJVoKdJuPH-50">
          <mxGeometry relative="1" as="geometry" />
        </mxCell>
        <mxCell id="0fgqfkrNGrGJVoKdJuPH-53" value="" style="edgeStyle=none;curved=1;rounded=0;orthogonalLoop=1;jettySize=auto;html=1;fontSize=12;startSize=8;endSize=8;" edge="1" parent="1" source="0fgqfkrNGrGJVoKdJuPH-38" target="0fgqfkrNGrGJVoKdJuPH-52">
          <mxGeometry relative="1" as="geometry" />
        </mxCell>
        <mxCell id="0fgqfkrNGrGJVoKdJuPH-38" value="UL" style="rounded=0;whiteSpace=wrap;html=1;" vertex="1" parent="1">
          <mxGeometry x="126" y="638.5" width="112" height="64" as="geometry" />
        </mxCell>
        <mxCell id="0fgqfkrNGrGJVoKdJuPH-39" value="LI" style="ellipse;whiteSpace=wrap;html=1;rounded=0;" vertex="1" parent="1">
          <mxGeometry x="-18" y="730" width="80" height="80" as="geometry" />
        </mxCell>
        <mxCell id="0fgqfkrNGrGJVoKdJuPH-41" value="LI" style="ellipse;whiteSpace=wrap;html=1;rounded=0;" vertex="1" parent="1">
          <mxGeometry x="328" y="730" width="80" height="80" as="geometry" />
        </mxCell>
        <mxCell id="0fgqfkrNGrGJVoKdJuPH-50" value="LI" style="ellipse;whiteSpace=wrap;html=1;rounded=0;" vertex="1" parent="1">
          <mxGeometry x="97" y="730" width="80" height="80" as="geometry" />
        </mxCell>
        <mxCell id="0fgqfkrNGrGJVoKdJuPH-52" value="LI" style="ellipse;whiteSpace=wrap;html=1;rounded=0;" vertex="1" parent="1">
          <mxGeometry x="215" y="730" width="80" height="80" as="geometry" />
        </mxCell>
        <mxCell id="0fgqfkrNGrGJVoKdJuPH-55" value="H1" style="rounded=0;whiteSpace=wrap;html=1;" vertex="1" parent="1">
          <mxGeometry x="430" y="617" width="120" height="60" as="geometry" />
        </mxCell>
        <mxCell id="0fgqfkrNGrGJVoKdJuPH-57" value="H2" style="rounded=0;whiteSpace=wrap;html=1;" vertex="1" parent="1">
          <mxGeometry x="267" y="627" width="120" height="60" as="geometry" />
        </mxCell>
      </root>
    </mxGraphModel>
  </diagram>
</mxfile>
